<svg width="64" height="64" viewBox="0 0 64 64" fill="none" xmlns="http://www.w3.org/2000/svg">
<circle cx="32" cy="32" r="32" fill="#110F16"/>
<path d="M43.5128 47H46.8333C47.6618 47 48.3333 46.3284 48.3333 45.5V19.5C48.3333 18.6716 47.6618 18 46.8333 18H36.9345C36.3963 18 35.8993 18.2884 35.6322 18.7557L32.4954 24.2442C32.1826 24.7916 32.2454 25.4761 32.6526 25.9574L35.0904 28.8384C35.7521 29.6204 36.9856 29.5238 37.5174 28.6483L38.9721 26.2537C39.2442 25.8059 39.7302 25.5325 40.2541 25.5325H40.5128C41.3413 25.5325 42.0128 26.204 42.0128 27.0325V45.5C42.0128 46.3284 42.6844 47 43.5128 47Z" fill="white"/>
<path fill-rule="evenodd" clip-rule="evenodd" d="M14.5 24V41C14.5 43.8284 14.5 45.2426 15.3787 46.1213C16.2574 47 17.6716 47 20.5 47H23.5021C24.9245 47 25.6358 47 26.2536 46.7019C26.8714 46.4037 27.3139 45.847 28.199 44.7335L28.199 44.7335L28.199 44.7335L34.9555 36.2335L34.9555 36.2335C36.379 34.4425 37.0908 33.5471 37.0908 32.5C37.0908 31.4529 36.379 30.5575 34.9555 28.7665L28.199 20.2665C27.3139 19.153 26.8714 18.5963 26.2536 18.2981C25.6358 18 24.9245 18 23.5021 18H20.5C17.6716 18 16.2574 18 15.3787 18.8787C14.5 19.7574 14.5 21.1716 14.5 24ZM21 24.2154V40.7054C21 41.1626 21.5629 41.38 21.8702 41.0415L29.6813 32.438C29.86 32.2412 29.8534 31.9389 29.6663 31.7501L21.8552 23.8635C21.541 23.5462 21 23.7687 21 24.2154Z" fill="white"/>
<path d="M26.2536 46.7019L26.0363 46.2516L26.0363 46.2516L26.2536 46.7019ZM28.199 44.7335L28.5906 45.0448L28.599 45.0335L28.199 44.7335ZM28.199 44.7335L28.599 45.0335L28.6074 45.0224L28.6151 45.0108L28.199 44.7335ZM28.199 44.7335L27.8076 44.4223L27.7946 44.4387L27.783 44.4561L28.199 44.7335ZM34.9555 36.2335L34.6019 35.8799L34.5818 35.9L34.564 35.9223L34.9555 36.2335ZM34.9555 36.2335L35.309 36.587L35.3292 36.5669L35.3469 36.5446L34.9555 36.2335ZM34.9555 28.7665L35.3469 28.4554L35.3469 28.4554L34.9555 28.7665ZM28.199 20.2665L28.5905 19.9554L28.5905 19.9554L28.199 20.2665ZM21.8702 41.0415L21.5 40.7054L21.5 40.7054L21.8702 41.0415ZM29.6813 32.438L29.3111 32.1019L29.3111 32.1019L29.6813 32.438ZM29.6663 31.7501L30.0216 31.3982L30.0216 31.3982L29.6663 31.7501ZM21.8552 23.8635L22.2105 23.5117L22.2105 23.5117L21.8552 23.8635ZM15 41V24H14V41H15ZM15.7322 45.7678C15.4013 45.4368 15.2078 44.9867 15.1054 44.2252C15.0011 43.4493 15 42.4283 15 41H14C14 42.4001 13.9989 43.5004 14.1143 44.3584C14.2316 45.2308 14.4774 45.9272 15.0251 46.4749L15.7322 45.7678ZM20.5 46.5C19.0717 46.5 18.0507 46.4989 17.2748 46.3946C16.5133 46.2922 16.0632 46.0987 15.7322 45.7678L15.0251 46.4749C15.5729 47.0226 16.2692 47.2684 17.1416 47.3857C17.9996 47.5011 19.0999 47.5 20.5 47.5V46.5ZM23.5021 46.5H20.5V47.5H23.5021V46.5ZM26.0363 46.2516C25.5456 46.4884 24.9728 46.5 23.5021 46.5V47.5C24.8763 47.5 25.7259 47.5116 26.4709 47.1522L26.0363 46.2516ZM27.8076 44.4224C26.8925 45.5736 26.527 46.0148 26.0363 46.2516L26.4709 47.1522C27.2158 46.7927 27.7354 46.1203 28.5904 45.0446L27.8076 44.4224ZM27.799 44.4335L27.799 44.4335L28.599 45.0335L28.599 45.0335L27.799 44.4335ZM27.783 44.4561L27.783 44.4561L28.6151 45.0108L28.6151 45.0108L27.783 44.4561ZM34.564 35.9223L27.8076 44.4223L28.5905 45.0446L35.3469 36.5446L34.564 35.9223ZM34.6019 35.8799L34.6019 35.8799L35.309 36.587L35.309 36.587L34.6019 35.8799ZM36.5908 32.5C36.5908 32.8967 36.4604 33.2904 36.1311 33.8258C35.7947 34.3728 35.2835 35.0172 34.5641 35.9223L35.3469 36.5446C36.051 35.6588 36.6075 34.96 36.9829 34.3497C37.3653 33.7279 37.5908 33.1504 37.5908 32.5H36.5908ZM34.564 29.0777C35.2835 29.9828 35.7946 30.6272 36.1311 31.1742C36.4604 31.7096 36.5908 32.1033 36.5908 32.5H37.5908C37.5908 31.8496 37.3653 31.2721 36.9828 30.6503C36.6075 30.04 36.051 29.3412 35.3469 28.4554L34.564 29.0777ZM27.8076 20.5777L34.564 29.0777L35.3469 28.4554L28.5905 19.9554L27.8076 20.5777ZM26.0363 18.7484C26.527 18.9852 26.8925 19.4264 27.8076 20.5777L28.5905 19.9554C27.7354 18.8797 27.2158 18.2073 26.4709 17.8478L26.0363 18.7484ZM23.5021 18.5C24.9728 18.5 25.5456 18.5116 26.0363 18.7484L26.4709 17.8478C25.7259 17.4884 24.8763 17.5 23.5021 17.5V18.5ZM20.5 18.5H23.5021V17.5H20.5V18.5ZM15.7322 19.2322C16.0632 18.9013 16.5133 18.7078 17.2748 18.6054C18.0507 18.5011 19.0717 18.5 20.5 18.5V17.5C19.0999 17.5 17.9996 17.4989 17.1416 17.6143C16.2692 17.7316 15.5729 17.9774 15.0251 18.5251L15.7322 19.2322ZM15 24C15 22.5717 15.0011 21.5507 15.1054 20.7748C15.2078 20.0133 15.4013 19.5632 15.7322 19.2322L15.0251 18.5251C14.4774 19.0729 14.2316 19.7692 14.1143 20.6416C13.9989 21.4996 14 22.5999 14 24H15ZM21.5 40.7054V24.2154H20.5V40.7054H21.5ZM21.5 40.7054L21.5 40.7054H20.5C20.5 41.6198 21.6258 42.0546 22.2404 41.3776L21.5 40.7054ZM29.3111 32.1019L21.5 40.7054L22.2404 41.3776L30.0515 32.7741L29.3111 32.1019ZM29.3111 32.1019L29.3111 32.1019L30.0515 32.7741C30.4089 32.3805 30.3957 31.776 30.0216 31.3982L29.3111 32.1019ZM21.5 24.2154L29.3111 32.1019L30.0216 31.3982L22.2105 23.5117L21.5 24.2154ZM21.5 24.2154L21.5 24.2154L22.2105 23.5117C21.5819 22.877 20.5 23.3221 20.5 24.2154H21.5Z" fill="#110F16"/>
</svg>
